# xmcd
#
# Track frame offsets:
#	150
#	14517
#	26500
#	41592
#	55280
#	68860
#	82520
#	97165
#	103555
#	114745
#	127715
#	138607
#	152180
#	161202
#
# Disc length: 2361 seconds
#
# Revision: 3
# Processed by: cddbd v1.5.2PL0 Copyright (c) Steve Scherf et al.
# Submitted via: EasyCDDAExtractor 11.0.3.1
#
DISCID=b709370e
DTITLE=Various Artist - Chicken Soup for the Soul (Christmas)
DYEAR=1999
DGENRE=Christmas
TTITLE0=Mahalia Jackson - Silent Night, Holy Night
TTITLE1=Judy Garland - Have Yourself A Merry Little Christmas
TTITLE2=The Harry Simone Chorale and Orchestra - The Little Drummer Boy
TTITLE3=Bing Crosby - White Christmas
TTITLE4=Harry Belafonte - Mary's Boy Child
TTITLE5=Angela Lansberry - We Need A Little Christmas
TTITLE6=Gene Autry - Rudolph, The Red Nosed Reindeer
TTITLE7=Johnny Mathis - Carol Of The Bells
TTITLE8=Brook Benton - This Time Of The Year
TTITLE9=Andy Williams - Do You Hear What I Hear
TTITLE10=Jackie Wilson - O Holy Night (Cantique De Noel)
TTITLE11=Perry Como - Jingle Bells
TTITLE12=Anita Bryant - The First Noel
TTITLE13=The Roches - The Hallelujah Chorus
EXTD=YEAR: 1999
EXTT0=
EXTT1=
EXTT2=
EXTT3=
EXTT4=
EXTT5=
EXTT6=
EXTT7=
EXTT8=
EXTT9=
EXTT10=
EXTT11=
EXTT12=
EXTT13=
PLAYORDER=
